<svg width="181" height="162" viewBox="0 0 181 162" fill="none" xmlns="http://www.w3.org/2000/svg">
<path d="M22.625 81C14.3292 81 7.54167 74.925 7.54167 67.5V33.75C7.54167 26.325 14.3292 20.25 22.625 20.25H82.9583C91.2542 20.25 98.0417 26.325 98.0417 33.75V67.5C98.0417 74.925 91.2542 81 82.9583 81H67.875V101.25L45.25 81H22.625ZM158.375 121.5C166.671 121.5 173.458 115.425 173.458 108V74.25C173.458 66.825 166.671 60.75 158.375 60.75H113.125V67.5C113.125 82.35 99.55 94.5 82.9583 94.5V108C82.9583 115.425 89.7458 121.5 98.0417 121.5H113.125V141.75L135.75 121.5H158.375Z" fill="#00D57C"/>
</svg>
